<svg width="164" height="46" viewBox="0 0 164 46" fill="none" xmlns="http://www.w3.org/2000/svg">
<path fill-rule="evenodd" clip-rule="evenodd" d="M8.24982 14.1333C8.52207 15.1833 9.58407 15.7254 10.6629 15.3692C19.5081 12.6652 28.3746 10.8151 37.5238 9.46909C38.5723 9.32971 39.1461 8.25307 38.7606 7.17229C37.9483 4.89616 37.5377 3.76129 36.7071 1.49717C36.3546 0.536609 35.4013 -0.0937511 34.4259 0.0114341C25.4848 1.10611 16.8467 2.72333 8.18944 5.21472C7.06182 5.56596 6.36994 6.8203 6.65419 7.93263C7.28644 10.409 7.60557 11.649 8.24982 14.1333Z" fill="#2C2A29"/>
<path fill-rule="evenodd" clip-rule="evenodd" d="M44.0981 15.3783C43.7546 14.3606 42.8231 13.6806 41.9018 13.8009C27.9045 15.5729 14.2748 19.0102 1.34965 24.6913C0.406897 25.1342 -0.158603 26.3119 0.0393972 27.3502C0.545647 30.005 0.801397 31.3341 1.31852 33.9942C1.53977 35.1317 2.60927 35.6553 3.66415 35.1441C16.7921 29.1718 30.666 25.369 44.8984 23.1015C45.8029 22.9542 46.2641 21.9245 45.918 20.8637C45.2006 18.6642 44.8365 17.5672 44.0981 15.3783Z" fill="#2C2A29"/>
<path fill-rule="evenodd" clip-rule="evenodd" d="M44.0589 30.2048C43.712 29.1188 42.6976 28.4099 41.7343 28.6071C32.9945 30.4903 24.4516 32.7604 15.989 35.6493C14.9158 36.0407 14.3113 37.1654 14.5936 38.2C15.266 40.6647 15.6046 41.8995 16.286 44.3721C16.6059 45.5333 17.918 46.1276 19.127 45.6704C27.587 42.661 36.1318 40.0332 44.8629 37.9262C45.7006 37.7241 46.1128 36.7488 45.8011 35.7424C45.1141 33.5227 44.7654 32.4148 44.0589 30.2048Z" fill="#2C2A29"/>
<path fill-rule="evenodd" clip-rule="evenodd" d="M77.8649 27.8637C77.8649 24.8771 75.9527 23.6375 72.184 23.6375H67.684V32.0895H72.1274C75.7836 32.0895 77.8649 30.6248 77.8649 27.8637ZM71.2836 8.81838C70.1027 8.81838 68.8652 8.93108 67.684 9.10012V16.5942H71.509C74.8836 16.5942 76.4586 15.1855 76.4586 12.7624C76.4586 10.4525 74.8277 8.81838 71.2836 8.81838ZM87.0895 28.2581C87.0895 34.8506 80.4524 39.2458 72.9149 39.2458H59.0781V2.84573C63.6902 2.16954 67.1777 1.71875 71.2836 1.71875C78.877 1.71875 84.9524 5.26837 84.9524 11.4668C84.9524 15.0164 83.0957 17.3831 79.7774 18.6791C84.8957 20.1438 87.0895 23.243 87.0895 28.2581Z" fill="#2C2A29"/>
<path fill-rule="evenodd" clip-rule="evenodd" d="M106.909 32.0347V27.1887H105.278C101.453 27.1887 97.9659 28.0339 97.9659 30.6823C97.9659 32.7109 99.3159 33.4434 102.072 33.4434C104.266 33.4434 106.066 32.7669 106.909 32.0347ZM115.178 21.4974V36.3169C112.141 38.6272 107.247 39.8665 100.61 39.8665C94.7038 39.8665 89.8101 37.4439 89.8101 32.0907C89.8101 24.0331 97.6284 22.0609 106.909 21.7791C106.741 18.2859 105.334 17.3843 102.241 17.3843C100.61 17.3843 96.2784 18.1168 95.7163 18.1168C94.3659 18.1168 93.2976 17.2716 92.3976 14.7922L91.7222 12.7636C95.2097 11.468 98.6409 10.5664 102.353 10.5664C110.453 10.5664 115.178 13.6089 115.178 21.4974Z" fill="#2C2A29"/>
<path fill-rule="evenodd" clip-rule="evenodd" d="M163.307 19.1875V39.2471H154.926V22.1737C154.926 19.1875 153.014 17.6661 149.639 17.6661C148.064 17.6661 146.546 18.0042 145.308 18.5114C145.758 19.751 145.983 21.1034 145.983 22.5681V39.2471H137.602V22.1737C137.602 19.1875 135.69 17.6661 132.315 17.6661C131.021 17.6661 129.784 17.8352 128.715 18.1169V39.2471H120.222L120.278 14.1725C123.653 11.8062 128.94 10.5098 133.384 10.5098C136.927 10.5098 139.965 11.6931 142.158 13.609C145.027 11.7494 149.021 10.5098 152.395 10.5098C158.526 10.5098 163.307 13.778 163.307 19.1875Z" fill="#2C2A29"/>
</svg>
